# xmcd
#
# Track frame offsets:
#	150
#	41911
#	111961
#	130763
#	165934
#	207404
#	238327
#	279603
#	314164
#
# Disc length: 4520 seconds
#
# Revision: 1
# Processed by: cddbd v1.5.2PL0 Copyright (c) Steve Scherf et al.
# Submitted via: audiograbber 1.83.01
#
DISCID=8911a609
DTITLE=Grateful Dead - 95-05-28 Portland Meadows, Portland OR
DYEAR=1900
DGENRE=
TTITLE0=Crazy Fingers
TTITLE1=Corrina
TTITLE2=Drums
TTITLE3=Space
TTITLE4=Space
TTITLE5=All Along The Watchtower
TTITLE6=Black Peter
TTITLE7=Around and Around
TTITLE8=Box Of Rain
EXTD=
EXTT0=
EXTT1=
EXTT2=
EXTT3=
EXTT4=
EXTT5=
EXTT6=
EXTT7=
EXTT8=
PLAYORDER=
